<?xml version="1.0" standalone="no"?>
<!DOCTYPE svg PUBLIC "-//W3C//DTD SVG 20010904//EN"
 "http://www.w3.org/TR/2001/REC-SVG-20010904/DTD/svg10.dtd">
<svg version="1.0" xmlns="http://www.w3.org/2000/svg"
 width="24.000000pt" height="24.000000pt" viewBox="0 0 24.000000 24.000000"
 preserveAspectRatio="xMidYMid meet">
<metadata>
Created by potrace 1.15, written by Peter Selinger 2001-2017
</metadata>
<g transform="translate(0.000000,24.000000) scale(0.100000,-0.100000)"
fill="#000000" stroke="none">
<path d="M27 232 c-24 -3 -27 -8 -27 -38 0 -30 3 -34 25 -34 25 0 25 -1 25
-80 l0 -80 93 0 92 0 -3 87 c-3 83 -5 90 -35 121 -26 27 -38 32 -71 30 l-41
-1 40 -4 c26 -3 50 -14 68 -31 25 -24 27 -31 27 -109 l0 -83 -80 0 -80 0 0 75
0 75 49 0 c44 0 49 2 53 25 7 33 3 35 -53 35 -26 0 -49 3 -51 8 -1 4 -15 6
-31 4z"/>
</g>
</svg>
