<?xml version="1.0" standalone="no"?>
<!DOCTYPE svg PUBLIC "-//W3C//DTD SVG 20010904//EN"
 "http://www.w3.org/TR/2001/REC-SVG-20010904/DTD/svg10.dtd">
<svg version="1.0" xmlns="http://www.w3.org/2000/svg"
 width="128.000000pt" height="128.000000pt" viewBox="0 0 128.000000 128.000000"
 preserveAspectRatio="xMidYMid meet">
<metadata>
Created by potrace 1.15, written by Peter Selinger 2001-2017
</metadata>
<g transform="translate(0.000000,128.000000) scale(0.100000,-0.100000)"
fill="#000000" stroke="none">
<path d="M30 1030 l0 -150 318 0 317 0 -3 -58 c-2 -31 4 -88 13 -127 l16 -69
-52 -104 c-64 -129 -155 -268 -199 -305 -64 -54 -50 1 18 69 39 39 41 44 17
31 -41 -22 -68 -47 -90 -81 -18 -28 -18 -29 0 -42 43 -32 88 -2 160 106 l46
69 92 21 c167 38 176 38 242 11 67 -27 168 -40 179 -22 5 7 -5 11 -27 11 -44
0 -138 30 -131 41 14 23 148 4 166 -24 5 -7 8 -8 8 -1 0 5 -6 19 -14 30 -13
17 -27 19 -118 19 -115 0 -152 14 -200 78 -52 67 -66 108 -58 162 9 59 5 71
-8 24 l-9 -34 -12 43 c-14 50 -11 134 5 139 6 2 16 -8 23 -23 15 -34 25 -26
12 10 l-11 26 70 0 70 0 0 150 0 150 -420 0 -420 0 0 -150z m479 64 c30 -38
28 -98 -4 -129 -18 -19 -35 -25 -70 -25 l-45 0 0 90 0 90 49 0 c42 0 53 -4 70
-26z m273 -598 c27 -27 47 -50 46 -51 -2 -2 -46 -14 -98 -28 -52 -14 -103 -29
-114 -33 -22 -9 -24 -14 39 109 49 95 50 97 65 75 8 -13 36 -45 62 -72z"/>
</g>
</svg>
