<?xml version="1.0" standalone="no"?>
<!DOCTYPE svg PUBLIC "-//W3C//DTD SVG 20010904//EN"
 "http://www.w3.org/TR/2001/REC-SVG-20010904/DTD/svg10.dtd">
<svg version="1.0" xmlns="http://www.w3.org/2000/svg"
 width="48.000000pt" height="48.000000pt" viewBox="0 0 48.000000 48.000000"
 preserveAspectRatio="xMidYMid meet">
<metadata>
Created by potrace 1.15, written by Peter Selinger 2001-2017
</metadata>
<g transform="translate(0.000000,48.000000) scale(0.100000,-0.100000)"
fill="#000000" stroke="none">
<path d="M10 385 l0 -55 119 0 118 0 6 -51 c7 -53 -5 -85 -64 -179 -14 -22
-16 -30 -6 -20 9 9 32 44 51 79 32 60 34 63 46 42 13 -25 67 -61 90 -61 13 0
13 2 1 9 -11 7 -9 10 10 14 15 3 9 5 -18 6 -51 1 -88 39 -98 102 -8 45 2 59
43 59 20 0 22 5 22 55 l0 55 -160 0 -160 0 0 -55z"/>
</g>
</svg>
