<?xml version="1.0" standalone="no"?>
<!DOCTYPE svg PUBLIC "-//W3C//DTD SVG 20010904//EN"
 "http://www.w3.org/TR/2001/REC-SVG-20010904/DTD/svg10.dtd">
<svg version="1.0" xmlns="http://www.w3.org/2000/svg"
 width="64.000000pt" height="64.000000pt" viewBox="0 0 64.000000 64.000000"
 preserveAspectRatio="xMidYMid meet">
<metadata>
Created by potrace 1.15, written by Peter Selinger 2001-2017
</metadata>
<g transform="translate(0.000000,64.000000) scale(0.100000,-0.100000)"
fill="#000000" stroke="none">
<path d="M130 618 c0 -15 -9 -18 -59 -18 l-60 0 -3 -84 -3 -85 29 -5 c16 -3
44 -6 62 -6 l34 0 0 -210 0 -210 243 2 242 3 3 223 c2 154 -1 222 -8 222 -6 0
-9 4 -6 9 3 5 -1 12 -10 15 -8 3 -12 11 -8 17 4 7 3 9 -4 5 -11 -6 -27 10 -27
29 0 6 -5 10 -12 10 -15 0 -28 13 -28 28 0 7 -7 12 -15 12 -8 1 -14 7 -12 15
2 8 0 12 -4 8 -4 -4 -14 -3 -23 4 -9 6 16 -22 56 -63 l71 -74 4 -215 3 -215
-222 -3 -223 -2 0 205 0 205 90 0 90 0 1 -37 c1 -21 4 -49 8 -63 12 -39 -104
-258 -125 -237 -4 4 3 19 17 33 l24 27 -27 -17 c-33 -21 -43 -45 -22 -53 23
-9 59 32 105 119 l41 80 28 -34 29 -33 -27 -13 c-26 -12 -25 -12 10 -6 25 4
52 1 78 -10 22 -9 48 -16 58 -15 9 0 3 6 -15 12 -51 19 -52 30 -3 24 34 -4 41
-3 26 5 -10 6 -37 8 -59 5 -36 -5 -44 -2 -73 27 -17 17 -37 50 -43 71 -14 50
-14 108 -1 100 6 -3 10 -1 10 4 0 6 16 11 35 11 l35 0 0 75 0 75 -145 0 c-124
0 -145 2 -145 16 0 13 19 15 145 12 79 -2 141 0 137 4 -4 4 -73 8 -155 10
-134 3 -147 2 -147 -14z"/>
</g>
</svg>
